<svg width="113" height="113" viewBox="0 0 113 113" fill="none" xmlns="http://www.w3.org/2000/svg">
<rect width="113" height="113" rx="14" fill="black"/>
<path d="M89.9 47.4375H87.55L71.5729 27.5186C70.692 26.4208 69.5749 25.5347 68.3043 24.9256C67.0336 24.3166 65.6419 24.0002 64.2321 24H32.8141C28.9704 24 25.5144 26.3335 24.0868 29.8931L17.05 47.7686C13.0021 48.8145 10 52.4487 10 56.8125V73.2188C10 74.5137 11.0516 75.5625 12.35 75.5625H19.4C19.4 83.3291 25.7127 89.625 33.5 89.625C41.2873 89.625 47.6 83.3291 47.6 75.5625H66.4C66.4 83.3291 72.7127 89.625 80.5 89.625C88.2873 89.625 94.6 83.3291 94.6 75.5625H101.65C102.948 75.5625 104 74.5137 104 73.2188V61.5C104 53.7334 97.6873 47.4375 89.9 47.4375ZM33.5 82.5938C29.6122 82.5938 26.45 79.4399 26.45 75.5625C26.45 71.6851 29.6122 68.5312 33.5 68.5312C37.3878 68.5312 40.55 71.6851 40.55 75.5625C40.55 79.4399 37.3878 82.5938 33.5 82.5938ZM44.075 47.4375H27.1741L32.8141 33.375H44.075V47.4375ZM51.125 47.4375V33.375H64.2321L75.5121 47.4375H51.125ZM80.5 82.5938C76.6122 82.5938 73.45 79.4399 73.45 75.5625C73.45 71.6851 76.6122 68.5312 80.5 68.5312C84.3878 68.5312 87.55 71.6851 87.55 75.5625C87.55 79.4399 84.3878 82.5938 80.5 82.5938Z" fill="url(#paint0_linear_79_90)"/>
<defs>
<linearGradient id="paint0_linear_79_90" x1="57" y1="38.5" x2="57" y2="89.625" gradientUnits="userSpaceOnUse">
<stop stop-color="white"/>
<stop offset="1" stop-color="#323232" stop-opacity="0.74"/>
</linearGradient>
</defs>
</svg>
